<mxfile host="app.diagrams.net" agent="Mozilla/5.0 (Windows NT 10.0; Win64; x64) AppleWebKit/537.36 (KHTML, like Gecko) Chrome/128.0.0.0 Safari/537.36 OPR/114.0.0.0" version="25.0.1">
  <diagram name="Σελίδα-1" id="i7qNrUpRXzwxiMrxnKOg">
    <mxGraphModel dx="1268" dy="1727" grid="1" gridSize="10" guides="1" tooltips="1" connect="1" arrows="1" fold="1" page="1" pageScale="1" pageWidth="827" pageHeight="1169" math="0" shadow="0">
      <root>
        <mxCell id="0" />
        <mxCell id="1" parent="0" />
        <mxCell id="NFW7nQOXXXlPpSmHHsXy-13" style="edgeStyle=orthogonalEdgeStyle;rounded=0;orthogonalLoop=1;jettySize=auto;html=1;entryX=0.25;entryY=1;entryDx=0;entryDy=0;exitX=1;exitY=0.5;exitDx=0;exitDy=0;" parent="1" source="tZUy_Ip7p2qumZ7Wz-Hu-6" target="NFW7nQOXXXlPpSmHHsXy-5" edge="1">
          <mxGeometry relative="1" as="geometry">
            <mxPoint x="400" y="310" as="sourcePoint" />
          </mxGeometry>
        </mxCell>
        <mxCell id="NFW7nQOXXXlPpSmHHsXy-14" style="edgeStyle=orthogonalEdgeStyle;rounded=0;orthogonalLoop=1;jettySize=auto;html=1;exitX=0;exitY=0.5;exitDx=0;exitDy=0;" parent="1" source="tZUy_Ip7p2qumZ7Wz-Hu-6" target="NFW7nQOXXXlPpSmHHsXy-3" edge="1">
          <mxGeometry relative="1" as="geometry">
            <mxPoint x="220" y="310" as="sourcePoint" />
          </mxGeometry>
        </mxCell>
        <mxCell id="tZUy_Ip7p2qumZ7Wz-Hu-8" style="edgeStyle=orthogonalEdgeStyle;rounded=0;orthogonalLoop=1;jettySize=auto;html=1;exitX=0.5;exitY=0;exitDx=0;exitDy=0;entryX=0.5;entryY=1;entryDx=0;entryDy=0;" parent="1" source="NFW7nQOXXXlPpSmHHsXy-2" target="tZUy_Ip7p2qumZ7Wz-Hu-6" edge="1">
          <mxGeometry relative="1" as="geometry" />
        </mxCell>
        <mxCell id="NFW7nQOXXXlPpSmHHsXy-2" value="MQTT-Server" style="rounded=0;whiteSpace=wrap;html=1;" parent="1" vertex="1">
          <mxGeometry x="270" y="400" width="120" height="60" as="geometry" />
        </mxCell>
        <mxCell id="NFW7nQOXXXlPpSmHHsXy-15" style="edgeStyle=orthogonalEdgeStyle;rounded=0;orthogonalLoop=1;jettySize=auto;html=1;exitX=0.5;exitY=0;exitDx=0;exitDy=0;" parent="1" source="NFW7nQOXXXlPpSmHHsXy-3" target="NFW7nQOXXXlPpSmHHsXy-4" edge="1">
          <mxGeometry relative="1" as="geometry" />
        </mxCell>
        <mxCell id="NFW7nQOXXXlPpSmHHsXy-3" value="Influx" style="rounded=0;whiteSpace=wrap;html=1;" parent="1" vertex="1">
          <mxGeometry x="70" y="150" width="120" height="60" as="geometry" />
        </mxCell>
        <mxCell id="NFW7nQOXXXlPpSmHHsXy-4" value="Grafana" style="rounded=0;whiteSpace=wrap;html=1;" parent="1" vertex="1">
          <mxGeometry x="70" y="10" width="120" height="60" as="geometry" />
        </mxCell>
        <mxCell id="tZUy_Ip7p2qumZ7Wz-Hu-10" style="edgeStyle=orthogonalEdgeStyle;rounded=0;orthogonalLoop=1;jettySize=auto;html=1;exitX=0;exitY=0.5;exitDx=0;exitDy=0;entryX=0.5;entryY=1;entryDx=0;entryDy=0;" parent="1" source="NFW7nQOXXXlPpSmHHsXy-5" target="NFW7nQOXXXlPpSmHHsXy-7" edge="1">
          <mxGeometry relative="1" as="geometry" />
        </mxCell>
        <mxCell id="tZUy_Ip7p2qumZ7Wz-Hu-16" style="edgeStyle=orthogonalEdgeStyle;rounded=0;orthogonalLoop=1;jettySize=auto;html=1;exitX=1;exitY=0.5;exitDx=0;exitDy=0;entryX=0;entryY=0.5;entryDx=0;entryDy=0;" parent="1" source="NFW7nQOXXXlPpSmHHsXy-5" target="tZUy_Ip7p2qumZ7Wz-Hu-15" edge="1">
          <mxGeometry relative="1" as="geometry" />
        </mxCell>
        <mxCell id="NFW7nQOXXXlPpSmHHsXy-5" value="Context Broker" style="rounded=0;whiteSpace=wrap;html=1;" parent="1" vertex="1">
          <mxGeometry x="480" y="210" width="120" height="60" as="geometry" />
        </mxCell>
        <mxCell id="tZUy_Ip7p2qumZ7Wz-Hu-11" style="edgeStyle=orthogonalEdgeStyle;rounded=0;orthogonalLoop=1;jettySize=auto;html=1;exitX=0.5;exitY=1;exitDx=0;exitDy=0;entryX=0.5;entryY=0;entryDx=0;entryDy=0;" parent="1" source="NFW7nQOXXXlPpSmHHsXy-6" target="NFW7nQOXXXlPpSmHHsXy-7" edge="1">
          <mxGeometry relative="1" as="geometry" />
        </mxCell>
        <mxCell id="tZUy_Ip7p2qumZ7Wz-Hu-43" style="edgeStyle=orthogonalEdgeStyle;rounded=0;orthogonalLoop=1;jettySize=auto;html=1;exitX=0.5;exitY=0;exitDx=0;exitDy=0;entryX=0.5;entryY=1;entryDx=0;entryDy=0;" parent="1" source="NFW7nQOXXXlPpSmHHsXy-6" target="NFW7nQOXXXlPpSmHHsXy-8" edge="1">
          <mxGeometry relative="1" as="geometry" />
        </mxCell>
        <mxCell id="NFW7nQOXXXlPpSmHHsXy-6" value="Server" style="rounded=0;whiteSpace=wrap;html=1;" parent="1" vertex="1">
          <mxGeometry x="294" y="10" width="120" height="60" as="geometry" />
        </mxCell>
        <mxCell id="NFW7nQOXXXlPpSmHHsXy-7" value="MySQL" style="rounded=0;whiteSpace=wrap;html=1;" parent="1" vertex="1">
          <mxGeometry x="294" y="140" width="120" height="60" as="geometry" />
        </mxCell>
        <mxCell id="tZUy_Ip7p2qumZ7Wz-Hu-22" style="edgeStyle=orthogonalEdgeStyle;rounded=0;orthogonalLoop=1;jettySize=auto;html=1;exitX=1;exitY=0.5;exitDx=0;exitDy=0;entryX=0;entryY=0.5;entryDx=0;entryDy=0;" parent="1" source="NFW7nQOXXXlPpSmHHsXy-8" target="tZUy_Ip7p2qumZ7Wz-Hu-20" edge="1">
          <mxGeometry relative="1" as="geometry" />
        </mxCell>
        <mxCell id="tZUy_Ip7p2qumZ7Wz-Hu-50" style="edgeStyle=orthogonalEdgeStyle;rounded=0;orthogonalLoop=1;jettySize=auto;html=1;exitX=0;exitY=0.5;exitDx=0;exitDy=0;entryX=0.5;entryY=0;entryDx=0;entryDy=0;" parent="1" source="NFW7nQOXXXlPpSmHHsXy-8" target="NFW7nQOXXXlPpSmHHsXy-4" edge="1">
          <mxGeometry relative="1" as="geometry" />
        </mxCell>
        <mxCell id="NFW7nQOXXXlPpSmHHsXy-8" value="Front End" style="rounded=0;whiteSpace=wrap;html=1;" parent="1" vertex="1">
          <mxGeometry x="290" y="-100" width="130" height="60" as="geometry" />
        </mxCell>
        <mxCell id="NFW7nQOXXXlPpSmHHsXy-16" value="Κάθε 20 δευτερόλεπτα ελέγχει τις θέσεις parking" style="text;html=1;align=center;verticalAlign=middle;whiteSpace=wrap;rounded=0;" parent="1" vertex="1">
          <mxGeometry x="450" y="-10" width="150" height="30" as="geometry" />
        </mxCell>
        <mxCell id="NFW7nQOXXXlPpSmHHsXy-18" value="Μετρήσεις μπαταρίας και θερμοκρασίας&amp;nbsp;" style="text;html=1;align=center;verticalAlign=middle;whiteSpace=wrap;rounded=0;" parent="1" vertex="1">
          <mxGeometry x="130" y="270" width="140" height="30" as="geometry" />
        </mxCell>
        <mxCell id="tZUy_Ip7p2qumZ7Wz-Hu-31" style="edgeStyle=orthogonalEdgeStyle;rounded=0;orthogonalLoop=1;jettySize=auto;html=1;exitX=1;exitY=0.5;exitDx=0;exitDy=0;entryX=0;entryY=0.5;entryDx=0;entryDy=0;" parent="1" source="tZUy_Ip7p2qumZ7Wz-Hu-5" target="tZUy_Ip7p2qumZ7Wz-Hu-26" edge="1">
          <mxGeometry relative="1" as="geometry" />
        </mxCell>
        <mxCell id="tZUy_Ip7p2qumZ7Wz-Hu-5" value="&amp;nbsp;Simulation- Sensors" style="rounded=0;whiteSpace=wrap;html=1;" parent="1" vertex="1">
          <mxGeometry x="100" y="580" width="120" height="60" as="geometry" />
        </mxCell>
        <mxCell id="tZUy_Ip7p2qumZ7Wz-Hu-6" value="Iot Agent" style="rounded=0;whiteSpace=wrap;html=1;" parent="1" vertex="1">
          <mxGeometry x="270" y="310" width="120" height="60" as="geometry" />
        </mxCell>
        <mxCell id="tZUy_Ip7p2qumZ7Wz-Hu-17" style="edgeStyle=orthogonalEdgeStyle;rounded=0;orthogonalLoop=1;jettySize=auto;html=1;exitX=0;exitY=0.75;exitDx=0;exitDy=0;entryX=1;entryY=0.75;entryDx=0;entryDy=0;" parent="1" source="tZUy_Ip7p2qumZ7Wz-Hu-15" target="NFW7nQOXXXlPpSmHHsXy-5" edge="1">
          <mxGeometry relative="1" as="geometry" />
        </mxCell>
        <mxCell id="tZUy_Ip7p2qumZ7Wz-Hu-15" value="Mongo DB" style="rounded=0;whiteSpace=wrap;html=1;" parent="1" vertex="1">
          <mxGeometry x="660" y="210" width="120" height="60" as="geometry" />
        </mxCell>
        <mxCell id="tZUy_Ip7p2qumZ7Wz-Hu-20" value="Google Maps api" style="rounded=0;whiteSpace=wrap;html=1;" parent="1" vertex="1">
          <mxGeometry x="480" y="-100" width="120" height="60" as="geometry" />
        </mxCell>
        <mxCell id="tZUy_Ip7p2qumZ7Wz-Hu-23" value="Open meteo Api" style="rounded=0;whiteSpace=wrap;html=1;" parent="1" vertex="1">
          <mxGeometry x="90" y="460" width="120" height="60" as="geometry" />
        </mxCell>
        <mxCell id="tZUy_Ip7p2qumZ7Wz-Hu-32" style="edgeStyle=orthogonalEdgeStyle;rounded=0;orthogonalLoop=1;jettySize=auto;html=1;exitX=0.5;exitY=0;exitDx=0;exitDy=0;entryX=0.5;entryY=1;entryDx=0;entryDy=0;" parent="1" source="tZUy_Ip7p2qumZ7Wz-Hu-26" target="tZUy_Ip7p2qumZ7Wz-Hu-30" edge="1">
          <mxGeometry relative="1" as="geometry" />
        </mxCell>
        <mxCell id="tZUy_Ip7p2qumZ7Wz-Hu-26" value="Lora gateway" style="rounded=0;whiteSpace=wrap;html=1;" parent="1" vertex="1">
          <mxGeometry x="270" y="580" width="120" height="60" as="geometry" />
        </mxCell>
        <mxCell id="tZUy_Ip7p2qumZ7Wz-Hu-27" style="edgeStyle=orthogonalEdgeStyle;rounded=0;orthogonalLoop=1;jettySize=auto;html=1;exitX=0.5;exitY=1;exitDx=0;exitDy=0;entryX=0.421;entryY=0.029;entryDx=0;entryDy=0;entryPerimeter=0;" parent="1" source="tZUy_Ip7p2qumZ7Wz-Hu-23" target="tZUy_Ip7p2qumZ7Wz-Hu-5" edge="1">
          <mxGeometry relative="1" as="geometry" />
        </mxCell>
        <mxCell id="tZUy_Ip7p2qumZ7Wz-Hu-33" style="edgeStyle=orthogonalEdgeStyle;rounded=0;orthogonalLoop=1;jettySize=auto;html=1;exitX=0.5;exitY=0;exitDx=0;exitDy=0;" parent="1" source="tZUy_Ip7p2qumZ7Wz-Hu-30" target="NFW7nQOXXXlPpSmHHsXy-2" edge="1">
          <mxGeometry relative="1" as="geometry" />
        </mxCell>
        <mxCell id="tZUy_Ip7p2qumZ7Wz-Hu-30" value="Internet" style="rounded=0;whiteSpace=wrap;html=1;" parent="1" vertex="1">
          <mxGeometry x="270" y="480" width="120" height="60" as="geometry" />
        </mxCell>
        <mxCell id="tZUy_Ip7p2qumZ7Wz-Hu-49" value="" style="edgeStyle=orthogonalEdgeStyle;rounded=0;orthogonalLoop=1;jettySize=auto;html=1;" parent="1" source="tZUy_Ip7p2qumZ7Wz-Hu-34" target="NFW7nQOXXXlPpSmHHsXy-8" edge="1">
          <mxGeometry relative="1" as="geometry" />
        </mxCell>
        <mxCell id="tZUy_Ip7p2qumZ7Wz-Hu-34" value="User" style="rounded=0;whiteSpace=wrap;html=1;" parent="1" vertex="1">
          <mxGeometry x="305" y="-230" width="100" height="60" as="geometry" />
        </mxCell>
        <mxCell id="tZUy_Ip7p2qumZ7Wz-Hu-45" style="edgeStyle=orthogonalEdgeStyle;rounded=0;orthogonalLoop=1;jettySize=auto;html=1;exitX=0.75;exitY=1;exitDx=0;exitDy=0;" parent="1" source="NFW7nQOXXXlPpSmHHsXy-8" edge="1">
          <mxGeometry relative="1" as="geometry">
            <mxPoint x="388" y="10" as="targetPoint" />
          </mxGeometry>
        </mxCell>
        <mxCell id="tZUy_Ip7p2qumZ7Wz-Hu-46" style="edgeStyle=orthogonalEdgeStyle;rounded=0;orthogonalLoop=1;jettySize=auto;html=1;exitX=1;exitY=0.5;exitDx=0;exitDy=0;entryX=0.61;entryY=0.04;entryDx=0;entryDy=0;entryPerimeter=0;" parent="1" source="NFW7nQOXXXlPpSmHHsXy-6" target="NFW7nQOXXXlPpSmHHsXy-5" edge="1">
          <mxGeometry relative="1" as="geometry" />
        </mxCell>
      </root>
    </mxGraphModel>
  </diagram>
</mxfile>
